<mxfile host="app.diagrams.net" agent="Mozilla/5.0 (Macintosh; Intel Mac OS X 10_15_7) AppleWebKit/537.36 (KHTML, like Gecko) Chrome/131.0.0.0 Safari/537.36" version="24.7.5">
  <diagram name="Page-1" id="CvNvaUAeGeoO1y4UL_yQ">
    <mxGraphModel>
      <root>
        <mxCell id="0" />
        <mxCell id="1" parent="0" />
        <mxCell id="2" value="Open Source Tooling" style="whiteSpace=wrap;strokeWidth=2;verticalAlign=top;" vertex="1" parent="1">
          <mxGeometry width="535" height="238" as="geometry" />
        </mxCell>
        <mxCell id="3" value="Database" style="whiteSpace=wrap;strokeWidth=2;verticalAlign=top;" vertex="1" parent="2">
          <mxGeometry x="43" y="33" width="131" height="188" as="geometry" />
        </mxCell>
        <mxCell id="4" value="Supabase" style="whiteSpace=wrap;strokeWidth=2;" vertex="1" parent="3">
          <mxGeometry x="33" y="43" width="81" height="34" as="geometry" />
        </mxCell>
        <mxCell id="5" value="Iceberg" style="whiteSpace=wrap;strokeWidth=2;" vertex="1" parent="3">
          <mxGeometry x="40" y="127" width="68" height="34" as="geometry" />
        </mxCell>
        <mxCell id="6" value="Serverless" style="whiteSpace=wrap;strokeWidth=2;verticalAlign=top;" vertex="1" parent="2">
          <mxGeometry x="224" y="75" width="144" height="104" as="geometry" />
        </mxCell>
        <mxCell id="7" value="OpenWhisk" style="whiteSpace=wrap;strokeWidth=2;" vertex="1" parent="6">
          <mxGeometry x="33" y="43" width="94" height="34" as="geometry" />
        </mxCell>
        <mxCell id="8" value="General" style="whiteSpace=wrap;strokeWidth=2;verticalAlign=top;" vertex="1" parent="2">
          <mxGeometry x="418" y="75" width="90" height="104" as="geometry" />
        </mxCell>
        <mxCell id="9" value="Min" style="whiteSpace=wrap;strokeWidth=2;" vertex="1" parent="8">
          <mxGeometry x="33" y="43" width="40" height="34" as="geometry" />
        </mxCell>
      </root>
    </mxGraphModel>
  </diagram>
</mxfile>
